<svg width="1023" height="998" viewBox="0 0 1023 998" fill="none" xmlns="http://www.w3.org/2000/svg">
<ellipse cx="511.5" cy="499" rx="511.5" ry="499" fill="#E4E4E4"/>
<path d="M80.0801 463.896C23.163 463.896 73.4221 375.13 98.876 354.159C99.0414 354.023 99.1842 353.887 99.3306 353.731C131.236 319.643 219.717 326.561 251.364 360.836C285.198 397.48 295.77 463.896 268.28 463.896C240.79 463.896 262.908 388.319 179.469 388.319C118.144 388.319 132.944 463.896 80.0801 463.896Z" fill="#1C1C1C"/>
<path d="M780.012 395.189C755.024 418.386 760.623 443.284 748.293 443.284C735.605 443.284 729.261 422.672 735.605 388.319C745.558 334.421 790.585 299 847.679 299C904.774 299 944.229 317.561 961.868 367.707C978.785 415.801 970.325 477.637 932.263 429.542C869.38 350.086 809.617 367.707 780.012 395.189Z" fill="#1C1C1C"/>
<path d="M129.442 343.45C128.745 343.761 127.581 343.696 126.732 343.98C123.203 345.181 121.815 345.449 118.691 346.769C114.373 348.285 105.289 355.544 102.24 356.454C101.563 356.788 101.034 356.799 100.819 356.517C100.819 356.517 100.819 356.517 100.819 356.517C100.8 356.494 100.783 356.469 100.767 356.443C100.632 356.227 100.819 355.729 100.92 355.219C100.931 354.698 100.994 354.114 100.81 353.778C100.49 353.18 97.317 350.337 98.6845 348.696C100.637 346.247 107.124 342.884 108.462 342.105C109.349 341.51 110.294 340.5 111.486 339.764C115.301 337.45 117.512 336.777 120.878 334.316C122.561 334.251 124.243 334.231 125.924 334.252C127.78 333.356 130.997 333.188 132.169 332.847C133.136 332.559 133.608 331.993 134.64 331.725C135.807 331.421 137.675 331.478 139.779 331.003C143.255 330.238 143.668 329.052 145.782 328.595C147.973 328.128 151.452 328.35 154.225 327.736C154.567 327.584 154.911 327.433 155.255 327.283C154.982 327.02 154.707 326.757 154.43 326.496C155.849 326.256 156.503 326.794 157.817 326.73C159.36 326.66 160.117 326.084 161.161 326.051C162.014 326.025 163.182 326.435 164.285 326.394C165.887 326.34 165.534 325.711 166.402 325.59C166.746 325.513 173.17 325.308 173.533 325.351C176.289 325.458 176.473 326.347 178.644 326.579C184.66 327.239 190.903 327.368 196.503 328.148C198.988 328.49 201.572 329.088 203.971 329.801C199.664 331.061 207.646 334.763 205.34 330.622C207.929 331.778 210.058 331.391 212.576 332.312C214.191 332.912 215.161 333.717 217.491 334.502C221.567 335.857 226.551 336.471 226.71 339.262C231.546 340.902 234.989 343.829 237.708 342.88C238.95 343.424 241.204 346.352 242.321 347.341C243.522 348.115 251.619 355.384 252.717 356.885C253.105 357.292 253.578 357.799 254.07 358.337C255.122 359.486 256.292 360.786 257.045 361.47C258.399 362.708 261.043 362.321 260.939 366.552C263.391 369.463 264.108 370.632 265.796 373.74C266.098 374.305 265.805 374.579 266.006 374.891C266.419 375.533 267.361 376.478 268.1 377.63C269.316 379.528 269.22 381.057 270.196 380.209C271.119 381.392 272.026 382.594 272.915 383.813C272.945 384.389 272.972 384.965 272.994 385.539C273.594 386.119 274.193 386.71 274.787 387.307C272.75 387.282 276.134 391.822 276.303 389.746C277.202 392.533 278.007 395.324 278.73 398.137C276.677 398.52 280.753 404.094 281.605 403.21C281.714 403.521 281.822 403.832 281.931 404.149C282.359 407.074 283.605 409.475 284.187 412.969C284.754 416.498 284.437 416.209 283.765 417.466C284.012 418.263 284.25 419.058 284.478 419.85C287.899 423.599 283.442 423.622 286.363 430.689C285.013 433.212 286.251 438.915 286.456 442.928C286.485 443.389 286.805 443.419 286.857 444.035C287.019 445.593 285.988 449.384 286.989 449.468C286.432 450.761 285.795 452.083 285.088 453.305C284.93 454.417 284.663 455.647 284.344 456.775C284.639 456.905 284.934 457.036 285.229 457.166C283.26 459.009 281.243 462.452 279.38 463.587C279.034 463.802 278.694 463.552 277.616 464.164C276.378 464.906 273.929 466.153 272.246 466.337C271.707 466.965 271.108 467.563 270.489 468.127C269.639 468.293 268.907 468.274 268.28 468.17C266.512 467.87 265.767 467.045 264.425 466.661C264.253 466.612 262.696 466.25 261.217 465.491C259.74 464.765 258.516 463.755 258.383 463.659C256.475 462.043 255.419 463.391 252.072 457.137C251.528 456.011 251.489 455.028 251.059 454.027C250.289 452.351 247.587 447.501 246.72 447.406C246.926 444.989 244.764 439.852 244.481 438.196C244.403 437.706 244.976 437.393 244.592 435.923C244.279 434.707 242.7 431.974 242.194 430.532C241.669 429.004 241.926 428.258 241.667 427.57C241.423 426.93 240.77 426.537 240.378 425.696C239.161 423.07 238.53 420.446 237.353 418.486C235.643 415.638 232.894 414.067 230.76 412.429C230.399 411.875 230.189 411.219 229.724 410.708C224.06 404.318 215.751 399.081 207.431 396.236C203.675 394.684 193.693 391.305 195.971 394.645C194.424 394.772 184.255 392.737 182.175 392.804C181.206 392.776 180.315 392.882 179.469 393.005C178.567 393.14 177.753 393.301 176.956 393.335C172.48 393.574 169.065 393.556 164.018 395.483C162.697 396.003 161.582 397.074 160.812 397.378C159.901 397.733 158.725 397.593 157.56 398.133C154.754 399.332 150.233 402.779 148.049 404.781C147.64 405.135 147.14 404.882 146.461 405.316C143.802 407.002 141.601 409.844 143.301 410.41C140.047 412.879 138.623 416.531 136.668 419.778C132.484 426.588 125.154 440.143 121.115 446.936C118.566 451.189 119.424 451.727 113.68 456.865C112.364 457.974 110.975 458.994 109.235 460.172C105.083 462.979 100.566 463.805 97.7101 466.686C92.4145 468.234 88.1461 469.17 84.165 468.046C83.7479 468.421 83.3182 468.791 82.8762 469.156C82.2341 469.195 81.5839 469.224 80.9257 469.242C80.7157 468.917 80.5084 468.591 80.3037 468.265C80.2296 468.263 80.155 468.263 80.0801 468.262C75.484 468.264 69.6525 468.804 65.4942 467.205C62.1369 466.076 55.7633 462.38 52.5998 456.245C49.3318 450.24 49.2332 443.982 49.3726 440.921C49.5863 437.552 48.9625 437.41 50.5307 435.654C50.4925 434.927 50.4712 434.179 50.4562 433.483C50.1966 433.008 49.9427 432.525 49.6946 432.034C50.2701 427.881 51.8792 423.391 53 419.718C54.9312 413.073 58.1673 403.187 61.809 397.32C62.7107 395.839 64.2754 394.245 65.0644 392.769C66.2167 390.627 65.5599 389.57 67.0917 386.871C69.7171 382.166 76.1848 374.53 79.1279 370.431C79.9702 369.231 80.101 368.387 80.689 367.539C83.1651 363.982 85.4963 361.177 87.8753 357.625C91.7468 354.966 92.4977 356.217 94.4113 356.206C95.8247 356.219 99.8095 355.832 100.62 356.352C101.229 356.659 100.958 357.935 101.698 358.216C98.4902 361.729 96.6944 362.849 93.228 365.273C88.2689 371.019 83.7553 377.309 79.628 383.776C78.9341 384.158 78.2394 384.549 77.5445 384.947C77.5438 384.947 77.5431 384.946 77.5424 384.946C75.5894 387.246 75.7878 388.823 75.1618 390.315C69.1991 404.027 54.503 432.108 58.6899 447.147C59.0229 448.647 60.2619 451.755 62.2721 453.874C64.2365 456.081 66.8604 457.374 67.769 458.082C68.2462 458.455 68.1475 459.04 68.7122 459.271C72.386 460.309 76.0179 460.48 80.0801 460.266C82.1164 460.147 83.8578 459.933 85.7976 459.578C97.8494 459.317 107.516 450.406 113.92 439.921C121.615 428.038 127.062 413.934 137.342 402.04C147.346 389.768 164.145 383.24 179.469 383.645C185.251 383.644 190.775 383.98 196.417 384.812C203.235 385.758 212.153 387.676 218.404 391.007C221.091 392.438 221.591 393.71 225.277 395.2C225.175 395.433 225.073 395.665 224.97 395.898C227.862 397.437 229.988 398.296 232.871 400.798C235.382 402.785 240.871 409.244 242.23 411.699C242.99 412.927 242.298 412.726 243.019 413.855C244.273 415.771 247.17 419.718 248.458 422.585C249.666 425.14 250.912 429.733 251.693 431.662C254.649 438.683 257.564 446.49 260.518 452.691C261.315 454.4 262.114 456.447 262.49 456.793C263.167 457.47 263.767 457.184 264.218 457.442C265.335 458.044 266.414 458.58 268.28 458.71C270.433 458.858 272.216 458.388 273.388 457.525C281.211 451.197 279.572 433.073 276.675 420.232C274.943 411.582 269.61 397.766 266.141 390.321C265.421 388.704 266.211 388.824 265.512 387.504C264.729 386.042 263.905 385.475 263.497 384.823C260.758 380.208 253.755 370.849 250.756 366.876C250.206 366.097 250.131 365.244 249.75 364.818C249.559 364.603 248.874 364.349 248.241 363.72C248.238 363.717 248.236 363.715 248.233 363.712C242.749 358.382 238.162 354.879 231.457 350.931C218.498 343.408 201.114 339.138 185.372 336.884C181.939 336.382 179.638 335.197 179.144 335.163C178.065 335.096 177.325 335.708 175.146 335.744C167.916 335.822 158.16 335.312 151.374 336.426C148.028 336.934 143.596 338.468 140.421 339.315C137.895 339.921 131.846 341.163 130.873 341.9C130.273 342.321 130.188 343.111 129.442 343.45ZM219.749 335.902C218.863 336.798 224.186 337.814 222.551 336.507C222.184 336.205 219.965 335.654 219.749 335.902ZM222.256 401.627C222.107 401.929 221.958 402.23 221.807 402.531C222.397 402.76 222.989 403.006 223.592 403.274C223.422 402.902 223.234 402.522 223.059 402.155C222.794 401.977 222.526 401.802 222.256 401.627ZM739.87 415.018C739.97 415.788 739.579 416.937 739.615 417.848C739.797 421.692 739.683 423.144 740.215 426.464C740.587 428.872 742.197 433.611 744.166 435.923C745.943 438.29 748.099 438.68 748.293 440.228C748.293 440.228 748.293 440.228 748.293 440.228C748.293 440.258 748.292 440.288 748.289 440.319C748.261 440.914 747.076 441.473 746.76 442.066C746.45 442.63 746.052 447.07 743.192 446.4C741.18 445.906 738.282 443.75 736.683 441.357C734.996 438.975 734.215 436.641 733.819 435.858C733.28 434.772 732.381 433.529 731.862 432.113C730.246 427.492 730.201 425.013 728.715 420.897C729.104 419.158 729.555 417.448 730.052 415.782C729.717 413.603 730.49 410.398 730.506 409.092C730.512 408.025 730.107 407.404 730.152 406.278C730.201 405.041 730.804 403.168 730.96 400.93C731.234 397.262 730.219 396.474 730.387 394.231C730.526 392.456 731.269 389.998 731.69 387.596C731.813 386.89 731.909 386.192 731.954 385.518C731.906 385.128 731.859 384.737 731.815 384.346C731.483 384.549 731.152 384.755 730.822 384.962C731.001 383.452 731.703 382.956 732.029 381.606C732.418 380.021 732.096 379.082 732.38 378.02C732.613 377.156 733.366 376.089 733.672 374.965C734.124 373.327 733.414 373.496 733.576 372.585C733.594 372.211 735.532 365.676 735.719 365.32C736.779 362.582 737.685 362.698 738.69 360.602C741.49 354.825 744.109 348.714 747.249 343.58C748.644 341.287 750.334 339.048 752.093 337.035C751.289 341.654 758.308 335.587 753.471 336.067C755.716 334.091 756.383 331.902 758.422 329.945C759.745 328.691 760.957 328.122 762.801 326.318C766.044 323.12 769.117 318.855 771.688 319.999C775.616 316.336 779.976 314.591 780.448 311.715C781.561 310.842 785.282 310.157 786.717 309.584C788.024 308.894 798.348 304.643 800.086 304.14C801.794 303.484 804.77 302.439 806.173 301.774C807.891 300.954 808.576 298.333 812.6 299.96C816.383 298.716 817.783 298.472 821.466 298.029C822.129 297.954 822.277 298.327 822.658 298.255C823.441 298.105 824.729 297.574 826.144 297.31C828.455 296.88 829.898 297.54 829.469 296.317C830.991 295.898 832.51 295.508 834.044 295.143C834.614 295.332 835.182 295.524 835.748 295.72C836.559 295.383 837.366 295.054 838.179 294.732C837.325 296.604 843.094 295.211 841.151 294.261C843.346 294.431 845.5 294.654 847.679 294.925C848.53 295.032 849.376 295.144 850.217 295.259C849.779 297.315 856.721 295.626 856.191 294.496C856.532 294.509 856.872 294.523 857.212 294.538C860.181 295.208 862.931 294.901 866.565 295.566C870.141 296.243 869.815 296.438 870.809 297.497C871.664 297.531 872.516 297.571 873.363 297.616C878.191 295.597 876.76 299.884 884.646 299.238C886.747 301.287 892.799 301.724 896.807 302.375C897.277 302.448 897.373 302.142 898.005 302.224C899.556 302.411 903.146 304.025 903.353 303.016C904.55 303.741 905.723 304.481 906.893 305.247C908.002 305.468 909.092 305.701 910.203 305.959C910.321 305.66 910.44 305.36 910.559 305.06C912.236 306.933 915.609 308.035 917.052 309.071C917.337 309.276 917.204 309.702 918.105 310.308C919.158 311.014 921.264 312.028 922.485 312.921C923.238 312.794 923.995 312.676 924.756 312.567C927.216 313.785 927.284 315.42 928.519 316.397C928.763 316.544 932.981 319.579 933.196 319.763C935.091 321.062 935.419 319.667 940.176 324.437C941.008 325.298 941.422 326.256 942.157 327.037C943.485 328.374 947.884 332.15 948.783 332.046C949.509 334.451 953.448 339.245 954.158 340.965C954.379 341.474 953.914 341.917 954.683 343.415C955.32 344.633 957.502 347.383 958.231 348.96C959.002 350.608 958.811 351.44 959.143 352.188C959.458 352.902 960.153 353.334 960.598 354.283C961.989 357.274 962.47 360.25 963.388 362.651C963.911 364.025 964.588 365.284 965.312 366.495C966.386 368.281 967.559 369.942 968.439 371.64C968.588 372.408 968.542 373.218 968.766 373.999C971.551 383.668 973.405 394.899 973.888 404.966C974.301 409.669 972.295 421.284 975.256 418.268C975.919 419.915 973.387 432.053 972.425 434.326C971.803 436.58 971.641 438.63 970.797 440.53C968.299 445.601 964.513 451.777 954.624 451.975C952.258 451.943 949.867 451.796 948.613 451.28C947.259 450.729 946.027 449.436 944.609 448.513C940.951 446.304 935.445 441.34 933.223 438.657C932.782 438.143 933.012 437.616 932.482 436.766C931.411 434.983 930.075 433.132 928.946 432.167C928.2 431.553 927.561 431.423 927.197 432.08C925.143 427.986 921.932 425.524 919.162 422.482C913.509 416.052 902.519 404.982 896.202 401.096C892.331 398.662 891.948 399.215 886.774 394.902C885.592 393.943 884.444 392.974 883.013 391.898C879.553 389.31 876.683 386.23 873.051 386.361C868.937 383.935 865.362 382.904 862.507 380.453C862 380.648 861.498 380.848 861.001 381.053C860.446 380.888 859.893 380.73 859.342 380.579C859.262 380.215 859.18 379.85 859.097 379.486C855.086 378.226 849.692 378.557 846.29 378.169C840.571 377.067 825.632 377.402 820.141 378.64C817.208 379.111 817.285 379.85 815.232 378.946C814.621 379.235 814.017 379.531 813.419 379.834C813.126 380.263 812.835 380.694 812.547 381.129C808.996 382.358 804.663 383.718 801.462 385.413C795.683 388.338 788.33 394.524 783.269 398.698C783.127 398.813 782.986 398.925 782.846 399.036C781.546 400.057 779.623 401.081 778.548 402.273C776.959 404.058 777.405 405.173 775.621 407.494C772.459 411.381 766.774 419.206 765.12 423.956C764.588 425.355 764.727 426.131 764.405 427.112C763.033 431.25 762.083 434.561 760.639 439.307C757.192 443.832 755.758 442.632 753.754 442.803C752.935 442.86 751.398 442.842 750.298 442.285C749.188 441.757 748.508 440.92 748.334 440.482C748.156 439.862 748.799 439.032 748.512 438.354C749.06 438.17 749.098 438.04 749.299 437.916C749.484 437.787 749.798 437.563 750.19 437.199C750.983 436.457 751.983 435.348 753.195 433.619C755.888 426.331 758.492 417.883 762.828 410.384C763.54 409.897 764.262 409.414 764.995 408.938C764.996 408.939 764.997 408.939 764.997 408.939C767.078 406.405 767.115 404.728 767.987 403.16C769.967 399.648 772.993 395.669 776.906 391.843C789.344 378.932 811.819 370.056 826.148 368.904C830.123 368.117 843.39 367.607 846.068 368.766C846.764 369 846.895 369.598 847.645 369.715C854.387 370.2 861.086 371.492 867.595 373.457C880.439 379.001 892.96 385.881 903.823 394.53C915.806 404.085 926.232 415.051 935.721 426.806C941.924 434.588 951.001 443.429 956.818 442.186C962.276 441.008 965.115 428.482 965.432 418.951C965.793 412.312 964.792 403.858 964.128 397.301C963.851 394.564 964.598 393.26 963.245 389.826C963.485 389.742 963.724 389.657 963.964 389.572C963.052 386.502 962.066 384.659 961.147 381.24C960.479 378.64 958.556 372.269 957.513 369.238C957.399 368.895 957.301 368.594 957.22 368.342C956.798 367.04 957.414 367.355 956.966 366.166C956.21 364.141 953.825 360.088 952.53 357.428C951.395 354.994 949.705 350.732 948.565 349.013C944.512 342.712 939.006 336.831 933.541 331.298C932.048 329.759 930.337 327.48 929.797 327.06C928.752 326.236 928.071 326.453 927.331 325.966C923.613 323.459 918.069 319.106 914.081 317.077C901.235 310.278 885.765 306.798 871.113 305.107C864.852 304.339 855.687 303.856 847.679 303.773C843.881 303.718 840.38 303.804 837.606 303.876C835.752 303.93 836.184 303.244 834.631 303.395C832.912 303.57 832.041 304.122 831.244 304.259C825.699 305.061 813.899 308.222 808.857 309.62C807.883 309.857 807.031 309.621 806.466 309.825C806.181 309.928 805.655 310.485 804.784 310.853C797.091 314.165 791.554 316.736 784.583 321.04C771.163 329.295 758.837 343.228 750.856 357.59C749.093 360.692 747.165 362.53 746.957 362.995C746.512 364.019 746.819 364.953 746.11 367.082C743.895 373.59 740.795 382.164 739.747 389.083C739.651 389.686 739.567 390.269 739.496 390.831C739.035 394.375 739.219 399.31 739.102 402.748C738.942 405.508 738.365 411.905 738.795 413.114C739.026 413.828 739.759 414.167 739.87 415.018ZM765.186 324.849C765.561 326.05 769.107 321.643 767.122 322.548C766.664 322.749 765.077 324.53 765.186 324.849ZM969.948 387.465C970.266 387.351 970.583 387.237 970.899 387.122C970.622 386.442 970.338 385.757 970.052 385.085C969.941 385.52 969.828 385.96 969.714 386.396C969.793 386.753 969.872 387.109 969.948 387.465Z" fill="#1C1C1C"/>
<g filter="url(#filter0_g_2381_31)">
<path d="M394.794 476.179C375.939 496.717 464.684 546.328 476.889 565.179C489.094 584.03 486.585 609.299 492.872 609.299C499.159 609.299 492.872 581.572 507.921 565.179C516.81 555.497 533.061 544.64 558.2 517.256C583.34 489.871 590.644 476.179 570.77 476.179C558.2 476.179 520.493 537.794 489.069 544.64C457.645 551.486 417.014 451.974 394.794 476.179Z" fill="#1C1C1C"/>
<path d="M489.091 643.008C489.456 638.728 496.194 640.483 495.564 644.732C494.935 648.977 489.477 648.349 489.094 644.075C489.077 643.895 489.069 643.713 489.069 643.529C489.069 643.354 489.077 643.18 489.091 643.008Z" fill="#1C1C1C"/>
<path d="M394.794 476.179C375.939 496.717 464.684 546.328 476.889 565.179C489.094 584.03 486.585 609.299 492.872 609.299C499.159 609.299 492.872 581.572 507.921 565.179C516.81 555.497 533.061 544.64 558.2 517.256C583.34 489.871 590.644 476.179 570.77 476.179C558.2 476.179 520.493 537.794 489.069 544.64C457.645 551.486 417.014 451.974 394.794 476.179Z" stroke="#1C1C1C" stroke-width="11.2274"/>
<path d="M489.091 643.008C489.456 638.728 496.194 640.483 495.564 644.732C494.935 648.977 489.477 648.349 489.094 644.075C489.077 643.895 489.069 643.713 489.069 643.529C489.069 643.354 489.077 643.18 489.091 643.008Z" stroke="#1C1C1C" stroke-width="11.2274"/>
</g>
<g filter="url(#filter1_g_2381_31)">
<path d="M392.993 636.171C386.676 663.487 418.263 690.802 443.532 697.631C463.542 703.039 489.329 677.669 500.062 663.907C503.954 697.461 563.559 704.46 576.194 683.974C588.829 663.487 601.463 615.684 582.511 608.856C563.559 602.027 569.877 670.316 544.607 670.316C519.338 670.316 500.385 629.342 494.068 629.342C487.751 629.342 475.116 677.145 443.529 677.145C418.26 677.145 416.154 645.276 418.26 629.342C418.26 622.513 416.996 608.856 411.942 608.856C405.625 608.856 399.31 608.856 392.993 636.171Z" fill="#1C1C1C"/>
<path d="M500.388 663.487C500.281 663.626 500.173 663.766 500.062 663.907M500.062 663.907C489.329 677.669 463.542 703.039 443.532 697.631C418.263 690.802 386.676 663.487 392.993 636.171C399.31 608.856 405.625 608.856 411.942 608.856C416.996 608.856 418.26 622.513 418.26 629.342C416.154 645.276 418.26 677.145 443.529 677.145C475.116 677.145 487.751 629.342 494.068 629.342C500.385 629.342 519.338 670.316 544.607 670.316C569.877 670.316 563.559 602.027 582.511 608.856C601.463 615.684 588.829 663.487 576.194 683.974C563.559 704.46 503.954 697.461 500.062 663.907Z" stroke="#1C1C1C" stroke-width="11.2274"/>
</g>
<defs>
<filter id="filter0_g_2381_31" x="384.861" y="465.058" width="204.628" height="189.876" filterUnits="userSpaceOnUse" color-interpolation-filters="sRGB">
<feFlood flood-opacity="0" result="BackgroundImageFix"/>
<feBlend mode="normal" in="SourceGraphic" in2="BackgroundImageFix" result="shape"/>
<feTurbulence type="fractalNoise" baseFrequency="0.3308030366897583 0.3308030366897583" numOctaves="3" seed="4882" />
<feDisplacementMap in="shape" scale="3.4076850414276123" xChannelSelector="R" yChannelSelector="G" result="displacedImage" width="100%" height="100%" />
<feMerge result="effect1_texture_2381_31">
<feMergeNode in="displacedImage"/>
</feMerge>
</filter>
<filter id="filter1_g_2381_31" x="384.853" y="601.059" width="214.64" height="104.638" filterUnits="userSpaceOnUse" color-interpolation-filters="sRGB">
<feFlood flood-opacity="0" result="BackgroundImageFix"/>
<feBlend mode="normal" in="SourceGraphic" in2="BackgroundImageFix" result="shape"/>
<feTurbulence type="fractalNoise" baseFrequency="0.3308030366897583 0.3308030366897583" numOctaves="3" seed="4882" />
<feDisplacementMap in="shape" scale="3.4076850414276123" xChannelSelector="R" yChannelSelector="G" result="displacedImage" width="100%" height="100%" />
<feMerge result="effect1_texture_2381_31">
<feMergeNode in="displacedImage"/>
</feMerge>
</filter>
</defs>
</svg>
